PathFileType	4	(X/Y/Z)	C:\Users\dbl\Desktop\20210112(1)\20210112\bx_n_10_1802.trc
DataRate	CameraRate	NumFrames	NumMarkers	Units	OrigDataRate	OrigDataStartFrame	OrigNumFrames
50.00	50.00	       4	43	mm	50.00	260	       518
Frame#	Time	Top.Head			R.Acromium			L.Acromium			Sternum			R.ASIS			L.ASIS			V.Sacral			R.Thigh.Upper			R.Thigh.Front			R.Thigh.Rear			R.Knee.Lat			R.Knee.Med			R.Shank.Upper			R.Shank.Front			R.Shank.Rear			R.Ankle.Lat			R.Midfoot.Lat			R.Toe.Lat			R.Toe.Tip			R.Toe.Med			R.Ankle.Med			R.Midfoot.Sup			R.Heel			L.Thigh.Upper			L.Thigh.Front			L.Thigh.Rear			L.Knee.Lat			L.Knee.Med			L.Shank.Upper			L.Shank.Front			L.Shank.Rear			L.Ankle.Lat			L.Midfoot.Lat			L.Toe.Lat			L.Toe.Tip			L.Toe.Med			L.Ankle.Med			L.Midfoot.Sup			L.Heel			origin1 front left			origin2 front right			origin 3 back right			origin 4 back leftt			
		X1	Y1	Z1	X2	Y2	Z2	X3	Y3	Z3	X4	Y4	Z4	X5	Y5	Z5	X6	Y6	Z6	X7	Y7	Z7	X8	Y8	Z8	X9	Y9	Z9	X10	Y10	Z10	X11	Y11	Z11	X12	Y12	Z12	X13	Y13	Z13	X14	Y14	Z14	X15	Y15	Z15	X16	Y16	Z16	X17	Y17	Z17	X18	Y18	Z18	X19	Y19	Z19	X20	Y20	Z20	X21	Y21	Z21	X22	Y22	Z22	X23	Y23	Z23	X24	Y24	Z24	X25	Y25	Z25	X26	Y26	Z26	X27	Y27	Z27	X28	Y28	Z28	X29	Y29	Z29	X30	Y30	Z30	X31	Y31	Z31	X32	Y32	Z32	X33	Y33	Z33	X34	Y34	Z34	X35	Y35	Z35	X36	Y36	Z36	X37	Y37	Z37	X38	Y38	Z38	X39	Y39	Z39	X40	Y40	Z40	X41	Y41	Z41	X42	Y42	Z42	X43	Y43	Z43	

260	5.180	-739.76428	92.59715	1847.29272	-718.08270	-86.15999	1549.93701	-736.24951	254.20171	1555.54126	-631.84125	84.27184	1360.40308	-622.82709	-30.04419	1067.00562	-647.42529	226.10020	1075.21277	-843.49969	79.32705	1055.05945	-700.28430	-84.37705	877.71027	-616.42810	-27.72262	813.37866	-716.97125	-68.82660	762.02832	-725.80536	-40.36885	617.39978	-694.37616	67.01768	578.64557	-730.90222	-35.68552	569.29266	-673.19843	6.12057	523.10175	-773.61377	-41.45678	488.56903	-760.81848	-13.57645	205.68372	-653.18140	-70.49133	158.56862	-610.52533	-79.01801	155.08855	-550.43732	-33.56430	163.77214	-595.39178	20.75251	171.35724	-712.07001	70.03539	217.79630	-667.68475	53.21505	162.13852	-786.42188	47.84087	174.39688	-724.07495	270.51117	880.16803	-613.93683	208.14114	827.34857	-722.06165	257.82773	748.79877	-742.19202	238.60809	644.12616	-689.64703	137.03766	583.06122	-736.05463	237.17293	579.98657	-677.69220	198.75638	539.31720	-773.66785	247.59084	504.38266	-767.74237	223.05824	205.61868	-660.74860	298.48132	157.48676	-623.91571	306.49951	158.48250	-555.42621	256.94394	165.37659	-590.69391	220.60260	174.18900	-710.10547	151.80487	216.47989	-672.38434	172.89377	157.76491	-793.24670	174.48322	184.39949	-528.16290	304.25986	146.74429	-517.94971	-72.84264	143.30879	-876.12787	-78.68400	141.68488	-882.43390	296.15622	144.75189	
261	5.200	-737.60559	91.76391	1847.44519	-717.38226	-86.76590	1549.93665	-735.34973	253.57730	1555.62805	-631.59106	83.61275	1360.20886	-624.42029	-30.34820	1067.04419	-648.18591	225.60046	1075.18835	-844.33081	78.89592	1055.27283	-701.02911	-84.75671	877.62708	-616.96710	-28.29922	813.49371	-717.43469	-69.06647	761.98376	-725.89819	-40.52787	617.36951	-694.13330	66.83637	578.67517	-730.90375	-35.88023	569.24536	-672.97565	5.94461	523.26196	-773.48077	-41.63395	488.51709	-760.80927	-13.58924	205.69157	-653.18677	-70.48511	158.54823	-610.51538	-79.00394	155.06375	-550.44006	-33.55643	163.80420	-595.40344	20.73973	171.35071	-712.02972	69.96259	217.83630	-667.64325	53.20936	162.11464	-786.42316	47.82903	174.40588	-724.80634	270.26721	880.15857	-614.59930	207.76730	827.46222	-722.49817	257.58267	748.81409	-742.41180	238.31586	644.15448	-689.76526	136.84781	582.99231	-736.15186	236.90524	579.92120	-677.84601	198.50609	539.24664	-773.72363	247.27043	504.31973	-767.76318	223.04767	205.64026	-660.75049	298.47290	157.48997	-623.90369	306.49524	158.51201	-555.44104	256.92468	165.36897	-590.71442	220.60260	174.20276	-710.08441	151.81659	216.50710	-672.42535	172.93178	157.80783	-793.24774	174.48613	184.37883	-528.15411	304.25278	146.72620	-517.96027	-72.88841	143.25848	-876.12799	-78.67780	141.69254	-882.41553	296.12299	144.74283	
262	5.220	-735.39819	90.96474	1847.59546	-716.64954	-87.39453	1549.90955	-734.41980	252.94638	1555.70276	-631.28705	82.98373	1359.97913	-626.07806	-30.65583	1067.05615	-648.96118	225.06909	1075.14905	-845.18073	78.42287	1055.46509	-701.74817	-85.18237	877.56348	-617.52942	-28.85991	813.59625	-717.88123	-69.40868	761.97711	-725.94440	-40.72312	617.29889	-693.85486	66.57983	578.70734	-730.87494	-36.09590	569.17523	-672.76758	5.80504	523.37152	-773.30322	-41.81418	488.44894	-760.79718	-13.61818	205.68843	-653.17841	-70.45667	158.54321	-610.50842	-79.00043	155.05159	-550.44110	-33.54011	163.81317	-595.39752	20.74767	171.35594	-711.96576	69.86111	217.90160	-667.61926	53.19173	162.07973	-786.42944	47.81167	174.43214	-725.57874	269.85654	880.08313	-615.27496	207.34677	827.55432	-722.98511	257.31119	748.83826	-742.61835	238.02998	644.19580	-689.94348	136.62262	582.92932	-736.32355	236.58791	579.83948	-678.03522	198.25180	539.20795	-773.81470	246.99368	504.23459	-767.79028	223.04745	205.65053	-660.74884	298.45486	157.51172	-623.87177	306.49164	158.54967	-555.46191	256.90143	165.37061	-590.73889	220.59700	174.20518	-710.06757	151.82820	216.51863	-672.49634	172.99065	157.80699	-793.28387	174.50206	184.36543	-528.15631	304.24515	146.69588	-517.95374	-72.96908	143.19414	-876.13226	-78.67340	141.69415	-882.41272	296.10434	144.72353	
263	5.240	-733.11304	90.17962	1847.72498	-715.84918	-88.02129	1549.85461	-733.47601	252.31464	1555.76074	-630.95129	82.37685	1359.72375	-627.80011	-30.96671	1067.04028	-649.76971	224.55771	1075.13062	-846.01776	77.88554	1055.62036	-702.44092	-85.63921	877.48438	-618.09839	-29.36850	813.71899	-718.32758	-69.83119	761.97186	-725.97559	-40.94058	617.17743	-693.60498	66.23238	578.75641	-730.83069	-36.30997	569.08539	-672.62543	5.69466	523.38904	-773.15405	-41.97596	488.36838	-760.78632	-13.65224	205.67578	-653.17657	-70.43789	158.54990	-610.51532	-79.01289	155.04057	-550.44324	-33.53544	163.80733	-595.38672	20.76418	171.37561	-711.91602	69.76566	217.96524	-667.61377	53.16627	162.06152	-786.47449	47.77803	174.46941	-726.38287	269.30420	880.00067	-615.94843	206.91141	827.66431	-723.50397	256.96603	748.85486	-742.82935	237.75748	644.21399	-690.11188	136.36455	582.88245	-736.55768	236.23486	579.75421	-678.21759	198.02930	539.23047	-773.92358	246.77261	504.13925	-767.82782	223.04337	205.66368	-660.74237	298.44485	157.53357	-623.84131	306.49121	158.58095	-555.48120	256.88495	165.38602	-590.76349	220.58415	174.21918	-710.04260	151.84444	216.52158	-672.56390	173.03755	157.77159	-793.33411	174.53563	184.35991	-528.15521	304.22351	146.68291	-517.94434	-73.03089	143.13110	-876.13812	-78.67657	141.68573	-882.42615	296.11182	144.70657	
